<svg xmlns="http://www.w3.org/2000/svg" viewBox="0 0 1600 900" role="img" aria-labelledby="title desc"><title id="title">自然に包まれたアトランティス風の古代都市</title><desc id="desc">海辺の古代都市、緑に覆われた段丘、穏やかに光るエネルギーの輪を描いたヒーロービジュアル。</desc><defs><linearGradient id="sky" x1="0" x2="1" y1="0" y2="1"><stop offset="0" stop-color="#f5d18d"/><stop offset=".42" stop-color="#8fc6b8"/><stop offset="1" stop-color="#1b6f76"/></linearGradient><linearGradient id="sea" x1="0" x2="1"><stop offset="0" stop-color="#0c5664"/><stop offset=".5" stop-color="#1aa0a1"/><stop offset="1" stop-color="#75c7b8"/></linearGradient><linearGradient id="stone" x1="0" x2="1" y1="0" y2="1"><stop offset="0" stop-color="#e7d9b4"/><stop offset="1" stop-color="#8f8b74"/></linearGradient><radialGradient id="glow" cx="50%" cy="46%" r="44%"><stop offset="0" stop-color="#fff2b8" stop-opacity=".95"/><stop offset=".38" stop-color="#ffd98a" stop-opacity=".35"/><stop offset="1" stop-color="#ffd98a" stop-opacity="0"/></radialGradient></defs><rect width="1600" height="900" fill="url(#sky)"/><circle cx="1005" cy="235" r="170" fill="url(#glow)"/><path d="M0 520C230 455 440 505 650 470C860 430 980 340 1210 380C1390 410 1500 480 1600 455V900H0Z" fill="url(#sea)"/><path d="M0 610C260 570 420 635 690 585C950 535 1140 580 1600 530V900H0Z" fill="#0f6e73" opacity=".65"/><path d="M95 610C300 520 550 520 735 590C930 485 1180 455 1505 545L1600 900H0Z" fill="#20372f" opacity=".34"/><path d="M705 255L800 120L895 255Z" fill="#e6d8af"/><path d="M610 305H990L945 382H655Z" fill="url(#stone)"/><path d="M552 382H1048L990 466H610Z" fill="#b9ad8d"/><path d="M485 466H1115L1045 558H555Z" fill="#988f78"/><path d="M420 558H1180L1080 665H520Z" fill="#716d61"/><g fill="#f6e8bd" opacity=".9"><rect x="650" y="286" width="42" height="96"/><rect x="728" y="286" width="42" height="96"/><rect x="830" y="286" width="42" height="96"/><rect x="908" y="286" width="42" height="96"/><rect x="560" y="428" width="46" height="118"/><rect x="1000" y="428" width="46" height="118"/></g><g fill="none" stroke="#ffe39a" stroke-width="4" opacity=".8"><ellipse cx="800" cy="440" rx="260" ry="86"/><ellipse cx="800" cy="440" rx="185" ry="58"/><path d="M800 120V666"/><path d="M540 440H1060"/></g><g fill="#5d9a68" opacity=".95"><path d="M490 548C530 500 600 512 634 462C657 530 720 532 744 590C656 574 582 578 490 548Z"/><path d="M1110 566C1060 508 994 520 956 470C942 540 868 544 842 604C935 586 1014 594 1110 566Z"/><path d="M618 680C720 620 895 625 1010 680C880 708 734 712 618 680Z"/></g><path d="M0 716C260 674 420 722 632 690C850 656 1018 718 1600 664V900H0Z" fill="#fff" opacity=".16"/><path d="M0 0H760C555 170 528 355 470 545C420 710 265 818 0 900Z" fill="#081d1b" opacity=".42"/></svg>
